<svg width="1172" height="37" viewBox="0 0 1172 37" fill="none" xmlns="http://www.w3.org/2000/svg">
<path fill-rule="evenodd" clip-rule="evenodd" d="M1172 13.0179V37.0109H0.000732422V13.0449L96.7518 13.0159L98.4744 15.8279L95.5981 20.5159H101.345L98.4744 15.8279L100.201 13.0159H142.879L145.331 8.99893L150.16 1.10893L153.381 6.36793L169.701 6.25093H172.317L178.928 17.0479H196.494L200.275 10.8739L239.062 10.9069L242.076 15.8249L246.593 8.44493L248.103 10.9069L334.366 10.8739L341.031 0.00292969L353.592 20.5159L353.597 20.5069L353.602 20.5159L358.331 12.7949H360.337L361.434 14.5859L359.691 17.4209H363.168L361.434 14.5859L362.511 12.8309L393.109 12.7999V12.7949H538.247L542.244 6.25093H548.992L557.332 20.5159L557.344 20.4969L557.354 20.5159L562.144 13.0159H638.191L639.914 15.8279L637.038 20.5159H642.785L639.914 15.8279L641.64 13.0159H684.319L686.77 8.99893L691.6 1.10893L694.82 6.36793L711.14 6.25093H713.757L720.368 17.0479H737.934L741.714 10.8739L780.501 10.9069L783.515 15.8249L788.033 8.44493L789.542 10.9069L875.806 10.8739L882.471 0.00292969L895.032 20.5159L895.036 20.5069L895.042 20.5159L899.77 12.7949H901.777L902.873 14.5859L901.131 17.4209H904.608L902.873 14.5859L903.95 12.8309L936.38 12.7979V12.7949H1081.52L1085.51 6.25093H1092.26L1100.6 20.5159L1100.61 20.4969L1100.62 20.5159L1105.41 13.0159L1172 13.0179ZM33.2318 16.0849H32.326V20.5159H33.2318V16.0849ZM34.6022 16.0849H33.6988V20.5159H34.6022V16.0849ZM40.9341 16.0849H40.03V20.5159H40.9341V16.0849ZM51.7964 16.0849H49.0831V20.5159H51.7964V16.0849ZM160.177 10.5139H159.271V11.9909H160.177V10.5139ZM163.646 10.5139H162.74V14.9459H163.646V10.5139ZM170.662 10.5139H169.756V11.9909H170.662V10.5139ZM170.662 13.4699H169.756V14.9459H170.662V13.4699ZM574.671 16.0849H573.766V20.5159H574.671V16.0849ZM576.042 16.0849H575.138V20.5159H576.042V16.0849ZM582.374 16.0849H581.47V20.5159H582.374V16.0849ZM593.236 16.0849H590.523V20.5159H593.236V16.0849ZM701.617 10.5139H700.711V11.9909H701.617V10.5139ZM705.085 10.5139H704.179V14.9459H705.085V10.5139ZM712.102 10.5139H711.196V11.9909H712.102V10.5139ZM712.102 13.4699H711.196V14.9459H712.102V13.4699ZM1117.94 16.0849H1117.04V20.5159H1117.94V16.0849ZM1119.31 16.0849H1118.41V20.5159H1119.31V16.0849ZM1125.64 16.0849H1124.74V20.5159H1125.64V16.0849ZM1136.51 16.0849H1133.79V20.5159H1136.51V16.0849ZM96.7383 12.9929H100.215L100.201 13.0159H96.7518L96.7383 12.9929ZM248.731 4.95393L246.593 8.44493L244.449 4.95393H248.731Z" fill="#060607"/>
</svg>
