<svg width="1172" height="19" viewBox="0 0 1172 19" fill="none" xmlns="http://www.w3.org/2000/svg">
<path fill-rule="evenodd" clip-rule="evenodd" d="M1146.22 11.594L1144.2 9.99292L1147.57 7.32519H1140.85L1144.2 9.99292L1142.19 11.594H1092.31L1089.44 13.8798L1083.8 18.3707L1080.03 15.3776L1060.96 15.4438H1057.9L1050.18 9.29884H1029.65L1025.23 12.8126L846.215 12.7941L842.693 9.99487L837.414 14.1954L835.649 12.7941L734.832 12.8126L727.042 19L712.361 7.32519L712.357 7.33055L712.35 7.32519L706.824 11.7196H704.479L703.197 10.7002L705.233 9.08647H701.17L703.197 10.7002L701.939 11.6992L654.367 11.7152V11.7196L647.652 11.7172L640.938 11.7196V11.7152L593.366 11.6992L592.108 10.7002L594.135 9.08647H590.072L592.108 10.7002L590.826 11.7196H588.481L582.956 7.32519L582.948 7.33055L582.944 7.32519L568.263 19L560.473 12.8126L499.333 12.7941L497.569 14.1954L492.289 9.99487L488.767 12.7941L403.759 12.8126L399.34 9.29884H378.811L371.084 15.4438H368.026L348.953 15.3776L345.189 18.3707L339.545 13.8798L336.68 11.594H286.8L284.783 9.99292L288.138 7.32519H281.421L284.783 9.99292L282.77 11.594H124.914L119.316 7.32519L119.305 7.33591L119.291 7.32519L109.544 15.4438H101.657L96.985 11.7196H0V0H1172V11.7196L1146.22 11.594ZM139.555 7.32519H138.496V9.84729H139.555V7.32519ZM141.157 7.32519H140.101V9.84729H141.157V7.32519ZM148.557 7.32519H147.501V9.84729H148.557V7.32519ZM161.252 7.32519H158.081V9.84729H161.252V7.32519ZM356.895 12.1775H355.837V13.0177H356.895V12.1775ZM360.949 10.4956H359.891V13.0177H360.949V10.4956ZM369.15 10.4956H368.092V11.3353H369.15V10.4956ZM369.15 12.1775H368.092V13.0177H369.15V12.1775ZM1060.89 10.4956H1059.84V11.3353H1060.89V10.4956ZM1060.89 12.1775H1059.84V13.0177H1060.89V12.1775ZM1069.1 10.4956H1068.04V13.0177H1069.1V10.4956ZM1073.15 12.1775H1072.09V13.0177H1073.15V12.1775ZM1146.23 11.6071H1142.17L1142.19 11.594H1146.22L1146.23 11.6071ZM834.915 16.1822L837.414 14.1954L839.919 16.1822H834.915ZM286.817 11.6071H282.753L282.77 11.594H286.8L286.817 11.6071Z" fill="black"/>
</svg>
