<svg width="1600" height="39" viewBox="0 0 1600 39" fill="none" xmlns="http://www.w3.org/2000/svg">
<path fill-rule="evenodd" clip-rule="evenodd" d="M1565.67 23.7981L1562.91 20.5118L1567.52 15.0359H1558.31L1562.91 20.5118L1560.15 23.7981H1491.8L1487.87 28.4902L1480.13 37.7083L1474.98 31.5645L1448.84 31.7005H1444.65L1434.06 19.0871H1405.93L1399.88 26.2996L1154.57 26.2616L1149.75 20.5158L1142.51 29.138L1140.1 26.2616L1001.95 26.2996L991.271 39L971.153 15.0359L971.148 15.0469L971.138 15.0359L963.566 24.0561H960.352L958.596 21.9635L961.386 18.6512H955.819L958.596 21.9635L956.872 24.0141L891.684 24.0471V24.0561L882.483 24.0511L873.282 24.0561V24.0471L808.094 24.0141L806.369 21.9635L809.147 18.6512H803.58L806.369 21.9635L804.613 24.0561H801.4L793.828 15.0359L793.818 15.0469L793.812 15.0359L773.695 39L763.021 26.2996L679.24 26.2616L676.822 29.138L669.587 20.5158L664.761 26.2616L548.274 26.2996L542.219 19.0871H514.088L503.499 31.7005H499.309L473.172 31.5645L468.015 37.7083L460.281 28.4902L456.354 23.7981H388.005L385.24 20.5118L389.837 15.0359H380.633L385.24 20.5118L382.482 23.7981H166.171L158.499 15.0359L158.484 15.0579L158.465 15.0359L145.109 31.7005H134.301L127.899 24.0561H-5V0H1601V24.0561L1565.67 23.7981ZM186.234 15.0359H184.783V20.2129H186.234V15.0359ZM188.429 15.0359H186.982V20.2129H188.429V15.0359ZM198.568 15.0359H197.121V20.2129H198.568V15.0359ZM215.965 15.0359H211.62V20.2129H215.965V15.0359ZM484.056 24.9959H482.606V26.7205H484.056V24.9959ZM489.611 21.5436H488.161V26.7205H489.611V21.5436ZM500.849 21.5436H499.399V23.2672H500.849V21.5436ZM500.849 24.9959H499.399V26.7205H500.849V24.9959ZM1448.75 21.5436H1447.3V23.2672H1448.75V21.5436ZM1448.75 24.9959H1447.3V26.7205H1448.75V24.9959ZM1459.99 21.5436H1458.54V26.7205H1459.99V21.5436ZM1465.54 24.9959H1464.09V26.7205H1465.54V24.9959ZM1565.69 23.8251H1560.12L1560.15 23.7981H1565.67L1565.69 23.8251ZM1139.09 33.2162L1142.51 29.138L1145.95 33.2162H1139.09ZM388.027 23.8251H382.459L382.482 23.7981H388.005L388.027 23.8251Z" fill="#FF003C"/>
</svg>
