<svg width="1600" height="19" viewBox="0 0 1600 19" fill="none" xmlns="http://www.w3.org/2000/svg">
<path fill-rule="evenodd" clip-rule="evenodd" d="M1564.8 11.5905L1562.05 9.98911L1566.64 7.32083H1557.47L1562.05 9.98911L1559.3 11.5905H1491.2L1487.29 13.8768L1479.59 18.3686L1474.45 15.3749L1448.41 15.4411H1444.23L1433.69 9.29488H1405.66L1399.63 12.8094L1155.24 12.7909L1150.43 9.99106L1143.23 14.1925L1140.82 12.7909L1003.18 12.8094L992.548 18.998L972.506 7.32083L972.5 7.32619L972.491 7.32083L964.947 11.7162H961.745L959.995 10.6965L962.775 9.08247H957.228L959.995 10.6965L958.278 11.6957L893.333 11.7118V11.7162L884.167 11.7137L875 11.7162V11.7118L810.056 11.6957L808.338 10.6965L811.105 9.08247H805.558L808.338 10.6965L806.589 11.7162H803.387L795.844 7.32083L795.833 7.32619L795.828 7.32083L775.785 18.998L765.151 12.8094L681.683 12.7909L679.274 14.1925L672.067 9.99106L667.258 12.7909L551.207 12.8094L545.174 9.29488H517.148L506.599 15.4411H502.425L476.386 15.3749L471.248 18.3686L463.543 13.8768L459.631 11.5905H391.537L388.783 9.98911L393.363 7.32083H384.193L388.783 9.98911L386.034 11.5905H170.532L162.889 7.32083L162.874 7.33155L162.855 7.32083L149.548 15.4411H138.781L132.403 11.7162H0.000976562V-0.00585938H1600V11.7162L1564.8 11.5905ZM190.52 7.32083H189.074V9.84345H190.52V7.32083ZM192.707 7.32083H191.265V9.84345H192.707V7.32083ZM202.808 7.32083H201.367V9.84345H202.808V7.32083ZM220.14 7.32083H215.811V9.84345H220.14V7.32083ZM487.229 12.1741H485.784V13.0145H487.229V12.1741ZM492.763 10.4919H491.318V13.0145H492.763V10.4919ZM503.959 10.4919H502.514V11.3318H503.959V10.4919ZM503.959 12.1741H502.514V13.0145H503.959V12.1741ZM1448.32 10.4919H1446.87V11.3318H1448.32V10.4919ZM1448.32 12.1741H1446.87V13.0145H1448.32V12.1741ZM1459.52 10.4919H1458.07V13.0145H1459.52V10.4919ZM1465.05 12.1741H1463.6V13.0145H1465.05V12.1741ZM1564.82 11.6036H1559.27L1559.3 11.5905H1564.8L1564.82 11.6036ZM1139.82 16.1797L1143.23 14.1925L1146.65 16.1797H1139.82ZM391.559 11.6036H386.012L386.034 11.5905H391.537L391.559 11.6036Z" fill="black"/>
</svg>
