<svg width="640" height="25" viewBox="0 0 640 25" fill="none" xmlns="http://www.w3.org/2000/svg">
<path fill-rule="evenodd" clip-rule="evenodd" d="M640 8.79202V25H0V8.81026L52.8334 8.79067L53.774 10.6903L52.2034 13.8571H55.3417L53.774 10.6903L54.7167 8.79067H78.0224L79.361 6.07706L81.9984 0.747136L83.757 4.29975L92.669 4.22071H94.0977L97.708 11.5144H107.3L109.365 7.34368L130.545 7.36597L132.191 10.6882L134.658 5.70282L135.482 7.36597L182.589 7.34368L186.228 0L193.088 13.8571L193.09 13.8511L193.093 13.8571L195.675 8.64137H196.771L197.37 9.85125L196.418 11.7664H198.317L197.37 9.85125L197.958 8.66569L214.667 8.64475V8.64137H293.923L296.105 4.22071H299.791L304.345 13.8571L304.351 13.8443L304.357 13.8571L306.972 8.79067H348.5L349.441 10.6903L347.87 13.8571H351.009L349.441 10.6903L350.384 8.79067H373.689L375.028 6.07706L377.665 0.747136L379.424 4.29975L388.336 4.22071H389.765L393.375 11.5144H402.967L405.032 7.34368L426.212 7.36597L427.858 10.6882L430.325 5.70282L431.149 7.36597L478.256 7.34368L481.895 0L488.755 13.8571L488.757 13.8511L488.76 13.8571L491.342 8.64137H492.438L493.037 9.85125L492.085 11.7664H493.984L493.037 9.85125L493.625 8.66569L511.334 8.6434V8.64137H590.59L592.772 4.22071H596.458L601.012 13.8571L601.018 13.8443L601.024 13.8571L603.639 8.79067L640 8.79202ZM18.1467 10.8639H17.652V13.8571H18.1467V10.8639ZM18.895 10.8639H18.4017V13.8571H18.895V10.8639ZM22.3527 10.8639H21.859V13.8571H22.3527V10.8639ZM28.2843 10.8639H26.8027V13.8571H28.2843V10.8639ZM87.4684 7.10049H86.9737V8.09825H87.4684V7.10049ZM89.3624 7.10049H88.8677V10.0944H89.3624V7.10049ZM93.194 7.10049H92.6994V8.09825H93.194V7.10049ZM93.194 9.09736H92.6994V10.0944H93.194V9.09736ZM313.813 10.8639H313.319V13.8571H313.813V10.8639ZM314.562 10.8639H314.068V13.8571H314.562V10.8639ZM318.019 10.8639H317.526V13.8571H318.019V10.8639ZM323.951 10.8639H322.469V13.8571H323.951V10.8639ZM383.135 7.10049H382.641V8.09825H383.135V7.10049ZM385.029 7.10049H384.535V10.0944H385.029V7.10049ZM388.861 7.10049H388.366V8.09825H388.861V7.10049ZM388.861 9.09736H388.366V10.0944H388.861V9.09736ZM610.48 10.8639H609.986V13.8571H610.48V10.8639ZM611.229 10.8639H610.735V13.8571H611.229V10.8639ZM614.686 10.8639H614.193V13.8571H614.686V10.8639ZM620.618 10.8639H619.136V13.8571H620.618V10.8639ZM52.826 8.77513H54.7244L54.7167 8.79067H52.8334L52.826 8.77513ZM135.825 3.34455L134.658 5.70282L133.487 3.34455H135.825Z" fill="#060607"/>
</svg>
