<svg width="1600" height="30" viewBox="0 0 1600 30" fill="none" xmlns="http://www.w3.org/2000/svg">
<path fill-rule="evenodd" clip-rule="evenodd" d="M1569.96 15.9895L1550.62 24.0659H1517.96L1477.6 7.03679L1477.54 7.05982L1477.49 7.03679L1454.31 16.0656H1093.86L1093.93 16.0927H1077.1L1077.17 16.0656H1086.28L1077.94 12.5232L1091.86 7.03679H1064.05L1077.94 12.5232L1069.59 16.0656H863.044L851.182 20.5155L827.809 30L812.226 24.0118L720.584 24.0659L688.586 11.0129H603.577L585.281 18.0707L397.573 18.0326L382.989 12.5272L361.127 20.8309L353.82 18.0326L0 18.0647V0H1600V15.9895H1569.96ZM1393.68 12.2237H1398.07V7.03679H1393.68V12.2237ZM1387.05 12.2237H1391.42V7.03679H1387.05V12.2237ZM1356.41 12.2237H1360.78V7.03679H1356.41V12.2237ZM1303.84 12.2237H1316.97V7.03679H1303.84V12.2237ZM779.334 18.7427H783.719V17.0151H779.334V18.7427ZM762.548 18.7427H766.933V13.5568H762.548V18.7427ZM728.591 18.7427H732.974V17.0151H728.591V18.7427ZM728.591 15.2834H732.974V13.5568H728.591V15.2834Z" fill="#FCEE0A"/>
</svg>
